<svg xmlns="http://www.w3.org/2000/svg" width="600" height="730" viewBox="0 0 600 730" role="img" aria-labelledby="t d" font-family="Geist, 'Segoe UI', Roboto, 'Helvetica Neue', Arial, sans-serif">
<title id="t">O placar dos modelos de IA em outubro de 2026</title>
<desc id="d">Barras horizontais com o Índice de Inteligência da Artificial Analysis. Claude Opus 5.5 lidera com 58, seguido por Claude Sonnet 5.5 (56); Claude Fable 5.1, GPT-6 Astra e Gemini 4 Argon empatam com 53; DeepSeek V4.1 Flash, destacado em laranja, marca 39.</desc>
<rect width="600" height="730" fill="#FFFFFF"/>
<text x="20" y="34" font-size="22" font-weight="600" fill="#0B0B0C" text-anchor="start">O placar dos modelos</text><text x="20" y="60" font-size="15" font-weight="400" fill="#6B6B76" text-anchor="start">Índice de Inteligência da Artificial Analysis (0 a 100)</text><text x="20" y="80" font-size="15" font-weight="400" fill="#6B6B76" text-anchor="start">Melhor configuração de cada modelo · consulta em 10/out/2026</text><line x1="20" y1="104" x2="20" y2="692" stroke="#C9C9D1" stroke-width="1"/><text x="30" y="120" font-size="15" font-weight="500" fill="#0B0B0C">Claude Opus 5.5<tspan dx="8" font-size="13" font-weight="400" fill="#9A9AA4">Anthropic</tspan></text><path d="M21 128 H471.3333333333333 Q475.3333333333333 128 475.3333333333333 132 V136 Q475.3333333333333 140 471.3333333333333 140 H21 Z" fill="#9A9AA4"/><text x="483.3333333333333" y="139" font-size="15" font-weight="600" fill="#0B0B0C" text-anchor="start">58</text><text x="30" y="166" font-size="15" font-weight="500" fill="#0B0B0C">Claude Sonnet 5.5<tspan dx="8" font-size="13" font-weight="400" fill="#9A9AA4">Anthropic</tspan></text><path d="M21 174 H455.6666666666667 Q459.6666666666667 174 459.6666666666667 178 V182 Q459.6666666666667 186 455.6666666666667 186 H21 Z" fill="#9A9AA4"/><text x="467.6666666666667" y="185" font-size="15" font-weight="600" fill="#0B0B0C" text-anchor="start">56</text><text x="30" y="212" font-size="15" font-weight="500" fill="#0B0B0C">Claude Fable 5.1<tspan dx="8" font-size="13" font-weight="400" fill="#9A9AA4">Anthropic</tspan></text><path d="M21 220 H432.16666666666663 Q436.16666666666663 220 436.16666666666663 224 V228 Q436.16666666666663 232 432.16666666666663 232 H21 Z" fill="#9A9AA4"/><text x="444.16666666666663" y="231" font-size="15" font-weight="600" fill="#0B0B0C" text-anchor="start">53</text><text x="30" y="258" font-size="15" font-weight="500" fill="#0B0B0C">GPT-6 Astra<tspan dx="8" font-size="13" font-weight="400" fill="#9A9AA4">OpenAI</tspan></text><path d="M21 266 H432.16666666666663 Q436.16666666666663 266 436.16666666666663 270 V274 Q436.16666666666663 278 432.16666666666663 278 H21 Z" fill="#9A9AA4"/><text x="444.16666666666663" y="277" font-size="15" font-weight="600" fill="#0B0B0C" text-anchor="start">53</text><text x="30" y="304" font-size="15" font-weight="500" fill="#0B0B0C">Gemini 4 Argon<tspan dx="8" font-size="13" font-weight="400" fill="#9A9AA4">Google</tspan></text><path d="M21 312 H432.16666666666663 Q436.16666666666663 312 436.16666666666663 316 V320 Q436.16666666666663 324 432.16666666666663 324 H21 Z" fill="#9A9AA4"/><text x="444.16666666666663" y="323" font-size="15" font-weight="600" fill="#0B0B0C" text-anchor="start">53</text><text x="30" y="350" font-size="15" font-weight="500" fill="#0B0B0C">GPT-6.1 Sol<tspan dx="8" font-size="13" font-weight="400" fill="#9A9AA4">OpenAI</tspan></text><path d="M21 358 H424.33333333333337 Q428.33333333333337 358 428.33333333333337 362 V366 Q428.33333333333337 370 424.33333333333337 370 H21 Z" fill="#9A9AA4"/><text x="436.33333333333337" y="369" font-size="15" font-weight="600" fill="#0B0B0C" text-anchor="start">52</text><text x="30" y="396" font-size="15" font-weight="500" fill="#0B0B0C">Muse Spark 1.3<tspan dx="8" font-size="13" font-weight="400" fill="#9A9AA4">Meta</tspan></text><path d="M21 404 H393 Q397 404 397 408 V412 Q397 416 393 416 H21 Z" fill="#9A9AA4"/><text x="405" y="415" font-size="15" font-weight="600" fill="#0B0B0C" text-anchor="start">48</text><text x="30" y="442" font-size="15" font-weight="500" fill="#0B0B0C">Grok 4.7<tspan dx="8" font-size="13" font-weight="400" fill="#9A9AA4">xAI</tspan></text><path d="M21 450 H377.33333333333337 Q381.33333333333337 450 381.33333333333337 454 V458 Q381.33333333333337 462 377.33333333333337 462 H21 Z" fill="#9A9AA4"/><text x="389.33333333333337" y="461" font-size="15" font-weight="600" fill="#0B0B0C" text-anchor="start">46</text><text x="30" y="488" font-size="15" font-weight="500" fill="#0B0B0C">Qwen3.8 Max<tspan dx="8" font-size="13" font-weight="400" fill="#9A9AA4">Alibaba</tspan></text><path d="M21 496 H369.5 Q373.5 496 373.5 500 V504 Q373.5 508 369.5 508 H21 Z" fill="#9A9AA4"/><text x="381.5" y="507" font-size="15" font-weight="600" fill="#0B0B0C" text-anchor="start">45</text><text x="30" y="534" font-size="15" font-weight="500" fill="#0B0B0C">Kimi K3<tspan dx="8" font-size="13" font-weight="400" fill="#9A9AA4">Moonshot</tspan></text><path d="M21 542 H361.66666666666663 Q365.66666666666663 542 365.66666666666663 546 V550 Q365.66666666666663 554 361.66666666666663 554 H21 Z" fill="#9A9AA4"/><text x="373.66666666666663" y="553" font-size="15" font-weight="600" fill="#0B0B0C" text-anchor="start">44</text><text x="30" y="580" font-size="15" font-weight="500" fill="#0B0B0C">Claude Haiku 5.5<tspan dx="8" font-size="13" font-weight="400" fill="#9A9AA4">Anthropic</tspan></text><path d="M21 588 H353.8333333333333 Q357.8333333333333 588 357.8333333333333 592 V596 Q357.8333333333333 600 353.8333333333333 600 H21 Z" fill="#9A9AA4"/><text x="365.8333333333333" y="599" font-size="15" font-weight="600" fill="#0B0B0C" text-anchor="start">43</text><text x="30" y="626" font-size="15" font-weight="600" fill="#0B0B0C">DeepSeek V4.1 Flash<tspan dx="8" font-size="13" font-weight="400" fill="#9A9AA4">DeepSeek</tspan></text><path d="M21 634 H322.5 Q326.5 634 326.5 638 V642 Q326.5 646 322.5 646 H21 Z" fill="#F6821F"/><text x="334.5" y="645" font-size="15" font-weight="600" fill="#0B0B0C" text-anchor="start">39</text><text x="358.5" y="645" font-size="13" font-weight="400" fill="#6B6B76" text-anchor="start">← recomendação da edição</text><text x="30" y="672" font-size="15" font-weight="500" fill="#0B0B0C">Mistral Large 4<tspan dx="8" font-size="13" font-weight="400" fill="#9A9AA4">Mistral</tspan></text><path d="M21 680 H314.66666666666663 Q318.66666666666663 680 318.66666666666663 684 V688 Q318.66666666666663 692 314.66666666666663 692 H21 Z" fill="#9A9AA4"/><text x="326.66666666666663" y="691" font-size="15" font-weight="600" fill="#0B0B0C" text-anchor="start">38</text><text x="20" y="718" font-size="12" font-weight="400" fill="#9A9AA4" text-anchor="start">Fonte: artificialanalysis.ai</text>
</svg>
